<svg xmlns="http://www.w3.org/2000/svg" viewBox="0 0 512 512" width="100%" height="100%">
  <!-- Pastel Blue Background -->
  <circle cx="256" cy="256" r="240" fill="#E2EDF8" />
  
  <!-- Raindrops -->
  <path d="M190 330 Q 190 350 180 370 Q 170 350 170 330 Z" fill="#93C5FD" />
  <path d="M256 330 Q 256 350 246 370 Q 236 350 236 330 Z" fill="#93C5FD" />
  <path d="M322 330 Q 322 350 312 370 Q 302 350 302 330 Z" fill="#93C5FD" />
  <!-- Fluffy Cloud -->
  <path d="M160 300 a60 60 0 0 1 0 -120 a80 80 0 0 1 150 -30 a70 70 0 0 1 60 120 Z" fill="#FFFFFF" />
  
  <!-- Cute Face -->
  <!-- Left Eye -->
  <circle cx="210" cy="230" r="12" fill="#475569" />
  <!-- Right Eye -->
  <circle cx="290" cy="230" r="12" fill="#475569" />
  <!-- Little Blush -->
  <ellipse cx="180" cy="245" rx="16" ry="8" fill="#FFB7B2" opacity="0.8" />
  <ellipse cx="320" cy="245" rx="16" ry="8" fill="#FFB7B2" opacity="0.8" />
  <!-- Smiling Mouth -->
  <path d="M235 245 Q 250 260 265 245" stroke="#475569" stroke-width="8" fill="none" stroke-linecap="round" />
</svg>