<svg xmlns="http://www.w3.org/2000/svg" viewBox="0 0 512 512" width="100%" height="100%">
  <!-- Pastel Blue Background -->
  <circle cx="256" cy="256" r="240" fill="#E2EDF8" />
  
  <!-- Snowflakes -->
  <g stroke="#93C5FD" stroke-width="6" stroke-linecap="round">
    <line x1="180" y1="340" x2="180" y2="380" />
    <line x1="160" y1="360" x2="200" y2="360" />
    <line x1="166" y1="346" x2="194" y2="374" />
    <line x1="194" y1="346" x2="166" y2="374" />
    
    <line x1="256" y1="340" x2="256" y2="380" />
    <line x1="236" y1="360" x2="276" y2="360" />
    <line x1="242" y1="346" x2="270" y2="374" />
    <line x1="270" y1="346" x2="242" y2="374" />
    
    <line x1="332" y1="340" x2="332" y2="380" />
    <line x1="312" y1="360" x2="352" y2="360" />
    <line x1="318" y1="346" x2="346" y2="374" />
    <line x1="346" y1="346" x2="318" y2="374" />
  </g>
  <!-- Fluffy Cloud -->
  <path d="M160 300 a60 60 0 0 1 0 -120 a80 80 0 0 1 150 -30 a70 70 0 0 1 60 120 Z" fill="#FFFFFF" />
  
  <!-- Cute Face -->
  <!-- Left Eye -->
  <circle cx="210" cy="230" r="12" fill="#475569" />
  <!-- Right Eye -->
  <circle cx="290" cy="230" r="12" fill="#475569" />
  <!-- Little Blush -->
  <ellipse cx="180" cy="245" rx="16" ry="8" fill="#FFB7B2" opacity="0.8" />
  <ellipse cx="320" cy="245" rx="16" ry="8" fill="#FFB7B2" opacity="0.8" />
  <!-- Smiling Mouth -->
  <path d="M235 245 Q 250 260 265 245" stroke="#475569" stroke-width="8" fill="none" stroke-linecap="round" />
</svg>