<svg xmlns="http://www.w3.org/2000/svg" viewBox="0 0 512 512" width="100%" height="100%">
  <!-- Pastel Blue Background -->
  <circle cx="256" cy="256" r="240" fill="#E2EDF8" />
  
  <!-- Sun Rays -->
  <g stroke="#FFD580" stroke-width="16" stroke-linecap="round">
    <line x1="256" y1="60" x2="256" y2="100" />
    <line x1="256" y1="412" x2="256" y2="452" />
    <line x1="60" y1="256" x2="100" y2="256" />
    <line x1="412" y1="256" x2="452" y2="256" />
    <line x1="118" y1="118" x2="146" y2="146" />
    <line x1="366" y1="366" x2="394" y2="394" />
    <line x1="118" y1="394" x2="146" y2="366" />
    <line x1="366" y1="118" x2="394" y2="146" />
  </g>
  <!-- Sun Body -->
  <circle cx="256" cy="256" r="110" fill="#FFE299" />
  
  <!-- Cute Face -->
  <!-- Left Eye -->
  <circle cx="220" cy="250" r="12" fill="#475569" />
  <!-- Right Eye -->
  <circle cx="292" cy="250" r="12" fill="#475569" />
  <!-- Little Blush -->
  <ellipse cx="190" cy="265" rx="16" ry="8" fill="#FFB7B2" opacity="0.8" />
  <ellipse cx="322" cy="265" rx="16" ry="8" fill="#FFB7B2" opacity="0.8" />
  <!-- Smiling Mouth -->
  <path d="M240 270 Q 256 285 272 270" stroke="#475569" stroke-width="8" fill="none" stroke-linecap="round" />
</svg>